<svg xmlns="http://www.w3.org/2000/svg" xmlns:xlink="http://www.w3.org/1999/xlink" width="200.002" height="200" viewBox="0 0 200.002 200"><defs><clipPath id="clip-path"><ellipse id="椭圆_2" cx="62.024" cy="62.105" fill="#dbe9eb" data-name="椭圆 2" rx="62.024" ry="62.105"/></clipPath></defs><g id="find" transform="translate(-75.758 -95.48)"><ellipse id="椭圆_1" cx="74.616" cy="74.712" fill="#5f70b9" data-name="椭圆 1" rx="74.616" ry="74.712" transform="translate(75.758 95.48)"/><path id="路径_18" fill="#5f70b9" d="M.072.008,13.139,0l-.076,116.662L0,116.67Z" data-name="路径 18" transform="translate(183.972 212.979) rotate(-45)"/><ellipse id="椭圆_3" cx="62.024" cy="62.105" fill="#fff" data-name="椭圆 3" rx="62.024" ry="62.105" transform="translate(89.005 108.157)"/><g id="蒙版组_1" clip-path="url(#clip-path)" data-name="蒙版组 1" transform="translate(89.005 108.157)"><path id="路径_19" fill="#dbe9eb" d="M0,0,23.33.015l.081,126.943-23.33-.015Z" data-name="路径 19" transform="matrix(0.766, 0.643, -0.643, 0.766, 77.694, -8.285)"/><path id="路径_20" fill="#dbe9eb" d="M0,0,11.2.007l.08,126.01L.08,126.01Z" data-name="路径 20" transform="matrix(0.766, 0.643, -0.643, 0.766, 112.99, 23.92)"/></g></g></svg>