<svg xmlns="http://www.w3.org/2000/svg" xmlns:xlink="http://www.w3.org/1999/xlink" width="200" height="200" viewBox="0 0 200 200"><defs><clipPath id="clip-path"><rect id="矩形_100" width="200" height="200" fill="#fff" stroke="#707070" stroke-width="1" data-name="矩形 100" transform="translate(1496 103)"/></clipPath></defs><g id="CITY" transform="translate(-1476 -112)"><g id="蒙版组_5" clip-path="url(#clip-path)" data-name="蒙版组 5" transform="translate(-20 9)"><g id="city-2" data-name="city" transform="translate(6 -10)"><g id="组_15" data-name="组 15" transform="translate(1466.995 112.961)"><rect id="矩形_85" width="63.551" height="50.04" fill="#4497ff" data-name="矩形 85" transform="translate(28.533 104.03)"/><rect id="矩形_87" width="67.442" height="30.287" fill="#4497ff" data-name="矩形 87" transform="translate(1.297 115.881)"/><rect id="矩形_88" width="29.83" height="26.337" fill="#4497ff" data-name="矩形 88" transform="translate(0 119.832)"/><rect id="矩形_89" width="55.77" height="76.376" fill="#4497ff" data-name="矩形 89" transform="translate(32.424 69.792)"/><rect id="矩形_90" width="36.315" height="44.772" fill="#4497ff" data-name="矩形 90" transform="translate(42.8 59.258)"/><path id="多边形_2" fill="#4497ff" d="M5.836,0l5.836,6.584H0Z" data-name="多边形 2" transform="translate(54.473 53.99)"/><rect id="矩形_91" width="134.885" height="72.426" fill="#4497ff" data-name="矩形 91" transform="translate(90.788 107.98)"/><rect id="矩形_92" width="20.751" height="147.485" fill="#4497ff" data-name="矩形 92" transform="translate(125.806)"/><path id="路径_15" fill="#4497ff" d="M1736.605,160.161,1715.85,138.3l-10.7,138.575h31.455Z" data-name="路径 15" transform="translate(-1570.071 -137.904)"/><rect id="矩形_93" width="33.721" height="44.772" fill="#4497ff" data-name="矩形 93" transform="translate(93.382 88.228)"/><rect id="矩形_94" width="28.533" height="28.97" fill="#4497ff" data-name="矩形 94" transform="translate(95.976 68.475)"/><rect id="矩形_95" width="23.345" height="32.921" fill="#4497ff" data-name="矩形 95" transform="translate(98.569 44.772)"/><rect id="矩形_96" width="18.158" height="27.654" fill="#4497ff" data-name="矩形 96" transform="translate(101.163 27.654)"/><path id="路径_16" fill="#4497ff" d="M1681.7,160.3s-.12-13.753,5.531-13.7,5.561,14.338,5.561,14.338l-10.373,1.819Z" data-name="路径 16" transform="translate(-1577.035 -132.449)"/><path id="路径_17" fill="#4497ff" d="M1726.871,211.528l7.727-18.64h47.521l6.581,20.053h-2.179V233.56h-59.65Z" data-name="路径 17" transform="translate(-1563.621 -120.61)"/><rect id="矩形_99" width="225.163" height="54.555" fill="#4497ff" data-name="矩形 99" transform="translate(0 144.852)"/><line id="直线_1" y1="11.852" fill="none" stroke="#4497ff" stroke-width="1.5" data-name="直线 1" transform="translate(109.948 3.86)"/></g></g></g><g id="组_21" data-name="组 21" transform="translate(51 29.747)"><circle id="椭圆_15" cx="8.216" cy="8.216" r="8.216" fill="#90c0ff" data-name="椭圆 15" transform="translate(1491.031 236)"/><path id="路径_22" fill="#90c0ff" d="M6.785,0C19.161-.092,18.406,27.3,18.406,27.3H-4.424S-5.591.091,6.785,0Z" data-name="路径 22" transform="translate(1492.424 254.951)"/></g><g id="组_19" data-name="组 19" transform="translate(17 -0.859)"><circle id="椭圆_15-2" cx="13.653" cy="13.653" r="13.653" fill="#e3efff" data-name="椭圆 15" transform="translate(1493.057 236)"/><path id="路径_22-2" fill="#e3efff" d="M14.221,0c20.565-.152,19.31,45.37,19.31,45.37H-4.4S-6.344.152,14.221,0Z" data-name="路径 22" transform="translate(1492.424 267.49)"/></g><g id="组_22" data-name="组 22" transform="translate(138 14.997)"><circle id="椭圆_15-3" cx="10.836" cy="10.836" r="10.836" fill="#b9d8ff" data-name="椭圆 15" transform="translate(1492.007 236)"/><path id="路径_22-3" fill="#b9d8ff" d="M10.368,0C26.691-.121,25.7,36.009,25.7,36.009H-4.415S-5.954.12,10.368,0Z" data-name="路径 22" transform="translate(1492.424 260.993)"/></g></g></svg>