<svg xmlns="http://www.w3.org/2000/svg" xmlns:xlink="http://www.w3.org/1999/xlink" width="1920" height="781" viewBox="0 0 1920 781"><defs><linearGradient id="linear-gradient" x1=".5" x2=".5" y2="1" gradientUnits="objectBoundingBox"><stop offset="0" stop-color="#8fc0ff"/><stop offset="1" stop-color="#eff8ff"/></linearGradient><clipPath id="clip-what_is_d4sd"><rect width="1920" height="781"/></clipPath></defs><g id="what_is_d4sd" clip-path="url(#clip-what_is_d4sd)" data-name="what is d4sd"><rect width="1920" height="781" fill="#fff"/><rect id="sky" width="2109" height="1284" fill="#eff8ff" transform="translate(-94 -452)"/><ellipse id="椭圆_2" cx="186.947" cy="186.947" fill="#e3eefc" data-name="椭圆 2" rx="186.947" ry="186.947" transform="translate(84 343.902)"/><ellipse id="椭圆_1" cx="120.369" cy="120.369" fill="#8fc0ff" data-name="椭圆 1" opacity=".454" rx="120.369" ry="120.369" transform="translate(149.909 407.567)"/><path id="路径_1" fill="url(#linear-gradient)" d="M0,88.88,87.494,0,171,89.959H116.324l.113,756.961H56.012V89.959Z" data-name="路径 1" opacity=".454" transform="translate(122.335 502.204) rotate(64)"/><path id="路径_2" fill="url(#linear-gradient)" d="M0,90.951,81.05,0l83.509,89.959H109.88l.113,756.961H49.569V89.959Z" data-name="路径 2" opacity=".454" transform="matrix(-0.899, 0.438, -0.438, -0.899, 295.462, 381.512)"/><path id="路径_8" fill="url(#linear-gradient)" d="M0,88.919,85.313,0l83.509,89.959H114.144L119.811,1340.3l-60.78-25.424L53.832,89.959Z" data-name="路径 8" opacity=".454" transform="matrix(-0.438, -0.899, 0.899, -0.438, 420.993, 559.29)"/><path id="Group" fill="#fff" d="M0,121.47l105.722-.19V0ZM83.4,101.7l-36.592-.19,36.7-43.123Z" transform="matrix(0.899, -0.438, 0.438, 0.899, 180.566, 494.491)"/><path id="路径_4" fill="url(#linear-gradient)" d="M0,88.172,87.68,0l83.509,89.959H116.511l.113,756.961H56.2V89.959Z" data-name="路径 4" opacity=".454" transform="matrix(0.899, -0.438, 0.438, 0.899, 241.93, 680.204)"/></g></svg>